<svg xmlns="http://www.w3.org/2000/svg" width="1200" height="800" viewBox="0 0 1200 800">
  <defs>
    <linearGradient id="bg-gradient" x1="0%" y1="0%" x2="100%" y2="100%">
      <stop offset="0%" stop-color="#9945FF" stop-opacity="0.05" />
      <stop offset="100%" stop-color="#14F195" stop-opacity="0.05" />
    </linearGradient>
  </defs>
  
  <!-- Background -->
  <rect x="0" y="0" width="1200" height="800" fill="url(#bg-gradient)" />
  
  <!-- Abstract Blockchain Elements -->
  <circle cx="200" cy="200" r="50" fill="none" stroke="#9945FF" stroke-width="1" stroke-opacity="0.2" />
  <circle cx="400" cy="300" r="80" fill="none" stroke="#9945FF" stroke-width="1" stroke-opacity="0.2" />
  <circle cx="700" cy="150" r="100" fill="none" stroke="#14F195" stroke-width="1" stroke-opacity="0.2" />
  <circle cx="900" cy="400" r="120" fill="none" stroke="#14F195" stroke-width="1" stroke-opacity="0.2" />
  <circle cx="300" cy="600" r="70" fill="none" stroke="#FD84D5" stroke-width="1" stroke-opacity="0.2" />
  <circle cx="800" cy="650" r="90" fill="none" stroke="#FD84D5" stroke-width="1" stroke-opacity="0.2" />
  
  <!-- Connection Lines -->
  <line x1="200" y1="200" x2="400" y2="300" stroke="#9945FF" stroke-width="1" stroke-opacity="0.1" />
  <line x1="400" y1="300" x2="700" y2="150" stroke="#9945FF" stroke-width="1" stroke-opacity="0.1" />
  <line x1="700" y1="150" x2="900" y2="400" stroke="#14F195" stroke-width="1" stroke-opacity="0.1" />
  <line x1="900" y1="400" x2="800" y2="650" stroke="#14F195" stroke-width="1" stroke-opacity="0.1" />
  <line x1="800" y1="650" x2="300" y2="600" stroke="#FD84D5" stroke-width="1" stroke-opacity="0.1" />
  <line x1="300" y1="600" x2="200" y2="200" stroke="#FD84D5" stroke-width="1" stroke-opacity="0.1" />
  
  <!-- Dots Pattern -->
  <g fill="#9945FF" fill-opacity="0.1">
    <circle cx="100" cy="100" r="2" />
    <circle cx="150" cy="100" r="2" />
    <circle cx="200" cy="100" r="2" />
    <circle cx="250" cy="100" r="2" />
    <circle cx="300" cy="100" r="2" />
    <circle cx="350" cy="100" r="2" />
    <circle cx="400" cy="100" r="2" />
    <circle cx="450" cy="100" r="2" />
    <circle cx="500" cy="100" r="2" />
    <circle cx="550" cy="100" r="2" />
    <circle cx="600" cy="100" r="2" />
    <circle cx="650" cy="100" r="2" />
    <circle cx="700" cy="100" r="2" />
    <circle cx="750" cy="100" r="2" />
    <circle cx="800" cy="100" r="2" />
    <circle cx="850" cy="100" r="2" />
    <circle cx="900" cy="100" r="2" />
    <circle cx="950" cy="100" r="2" />
    <circle cx="1000" cy="100" r="2" />
    <circle cx="1050" cy="100" r="2" />
    <circle cx="1100" cy="100" r="2" />
  </g>
  
  <g fill="#14F195" fill-opacity="0.1">
    <circle cx="100" cy="200" r="2" />
    <circle cx="150" cy="200" r="2" />
    <circle cx="200" cy="200" r="2" />
    <circle cx="250" cy="200" r="2" />
    <circle cx="300" cy="200" r="2" />
    <circle cx="350" cy="200" r="2" />
    <circle cx="400" cy="200" r="2" />
    <circle cx="450" cy="200" r="2" />
    <circle cx="500" cy="200" r="2" />
    <circle cx="550" cy="200" r="2" />
    <circle cx="600" cy="200" r="2" />
    <circle cx="650" cy="200" r="2" />
    <circle cx="700" cy="200" r="2" />
    <circle cx="750" cy="200" r="2" />
    <circle cx="800" cy="200" r="2" />
    <circle cx="850" cy="200" r="2" />
    <circle cx="900" cy="200" r="2" />
    <circle cx="950" cy="200" r="2" />
    <circle cx="1000" cy="200" r="2" />
    <circle cx="1050" cy="200" r="2" />
    <circle cx="1100" cy="200" r="2" />
  </g>
</svg>
